<svg viewBox="0 0 1440 900" fill="none" xmlns="http://www.w3.org/2000/svg">

<g clip-path="url(#clip0)"><path fill="#fff" d="M0 0h1440v900H0z"/>
<path fill="#2F2E41" d="M0-5h1535v950H0z"/>
<path d="M682.594 272.111a7.048 7.048 0 007.046-7.048 7.048 7.048 0 10-7.046 7.048zM380.047 132.095a7.046 7.046 0 007.046-7.047 7.046 7.046 0 10-14.093 0 7.047 7.047 0 007.047 7.047zM1342.05 62.095c3.89 0 7.04-3.155 7.04-7.047a7.043 7.043 0 00-7.04-7.048c-3.9 0-7.05 3.155-7.05 7.048a7.045 7.045 0 007.05 7.047zM1221.05 418.095c3.89 0 7.04-3.155 7.04-7.047a7.042 7.042 0 00-7.04-7.048c-3.9 0-7.05 3.155-7.05 7.048a7.044 7.044 0 007.05 7.047zM461.327 500.457a2.82 2.82 0 10-.001-5.64 2.82 2.82 0 00.001 5.64zM877.082 632.954a2.82 2.82 0 10-.001-5.64 2.82 2.82 0 00.001 5.64zM142.816 597.715a2.819 2.819 0 100-5.638 2.819 2.819 0 000 5.638zM1242.1 497.637c1.56 0 2.82-1.262 2.82-2.819a2.818 2.818 0 00-2.82-2.819 2.824 2.824 0 00-2.82 2.819 2.824 2.824 0 002.82 2.819zM1371.82 597.638c1.56 0 2.82-1.262 2.82-2.819a2.818 2.818 0 00-2.82-2.819 2.818 2.818 0 00-2.82 2.819 2.818 2.818 0 002.82 2.819zM1262.82 669.638c1.56 0 2.82-1.262 2.82-2.819a2.818 2.818 0 00-2.82-2.819 2.818 2.818 0 00-2.82 2.819 2.818 2.818 0 002.82 2.819zM1410.82 775.638c1.56 0 2.82-1.262 2.82-2.819a2.818 2.818 0 00-2.82-2.819 2.818 2.818 0 00-2.82 2.819 2.818 2.818 0 002.82 2.819zM337.305 527.238a2.819 2.819 0 100-5.638 2.819 2.819 0 000 5.638zM799.569 470.856a2.819 2.819 0 10-.001-5.637 2.819 2.819 0 00.001 5.637zM892.585 267.882a2.819 2.819 0 100-5.638 2.819 2.819 0 000 5.638zM1374.82 117.638c1.56 0 2.82-1.262 2.82-2.819a2.818 2.818 0 00-2.82-2.819 2.818 2.818 0 00-2.82 2.819 2.818 2.818 0 002.82 2.819zM1162.82 123.638c1.56 0 2.82-1.262 2.82-2.819a2.818 2.818 0 00-2.82-2.819 2.818 2.818 0 00-2.82 2.819 2.818 2.818 0 002.82 2.819zM1008.82 92.638c1.56 0 2.82-1.262 2.82-2.819S1010.38 87 1008.82 87a2.818 2.818 0 00-2.82 2.82c0 1.556 1.26 2.818 2.82 2.818zM832.819 111.638a2.819 2.819 0 10-.001-5.637 2.819 2.819 0 00.001 5.637zM583.819 53.638a2.819 2.819 0 10-.002-5.637 2.819 2.819 0 00.002 5.637zM478.819 193.638a2.819 2.819 0 10-.001-5.637 2.819 2.819 0 00.001 5.637zM42.819 277.638a2.819 2.819 0 100-5.638 2.819 2.819 0 000 5.638zM170.819 403.638a2.819 2.819 0 10-.001-5.637 2.819 2.819 0 00.001 5.637zM45.819 523.638a2.819 2.819 0 100-5.638 2.819 2.819 0 000 5.638zM104.819 765.638a2.819 2.819 0 10-.001-5.637 2.819 2.819 0 00.001 5.637zM306.3 597.715h-2.819v1.41h2.819v-1.41zM389.451 382.055h-2.819v1.41h2.819v-1.41zM592.396 542.743h-2.819v1.409h2.819v-1.409zM1130.76 604.763h-2.81v1.409h2.81v-1.409zM963.052 389.103h-2.818v1.409h2.818v-1.409zM1061.82 243H1059v1.41h2.82V243zM1111.82 449H1109v1.41h2.82V449zM1285.82 244H1283v1.41h2.82V244zM1391.82 381H1389v1.41h2.82V381zM620.819 355H618v1.41h2.819V355zM463.819 275H461v1.41h2.819V275z" fill="#F2F2F2"/>
<path d="M901.132 728.86h-4.959v195.931h4.959V728.86z" fill="#6C63FF"/>
<path d="M946.904 753.829c.315 68.512-47.88 124.276-47.88 124.276s-48.707-55.317-49.022-123.829C849.686 685.763 897.881 630 897.881 630s48.707 55.317 49.023 123.829zM327.187 703.623h-4.96v195.931h4.96V703.623z" fill="#3F3D56"/>
<path d="M372.958 669.391c.316 68.512-47.879 124.276-47.879 124.276s-48.707-55.317-49.023-123.829c-.315-68.513 47.88-124.276 47.88-124.276s48.707 55.317 49.022 123.829zM265.971 645.538h-6.43v254.016h6.43V645.538z" fill="#3F3D56"/>
<path d="M325.311 618.709c.409 88.823-62.074 161.117-62.074 161.117s-63.146-71.715-63.555-160.538c-.41-88.823 62.073-161.118 62.073-161.118s63.146 71.716 63.556 160.539zM208.802 703.623h-4.959v195.931h4.959V703.623z" fill="#3F3D56"/>
<path d="M254.574 669.391c.315 68.512-47.88 124.276-47.88 124.276s-48.707-55.317-49.022-123.829c-.316-68.513 47.879-124.276 47.879-124.276s48.707 55.317 49.023 123.829zM1155.52 710.452h-4.96v195.931h4.96V710.452z" fill="#3F3D56"/>
<path d="M1201.29 676.221c.31 68.512-47.88 124.275-47.88 124.275s-48.71-55.317-49.02-123.829c-.32-68.512 47.88-124.275 47.88-124.275s48.7 55.316 49.02 123.829zM1094.3 652.368h-6.43v254.015h6.43V652.368z" fill="#3F3D56"/>
<path d="M1153.64 625.538c.41 88.823-62.07 161.118-62.07 161.118s-63.15-71.716-63.56-160.538C1027.6 537.295 1090.09 465 1090.09 465s63.14 71.716 63.55 160.538zM1037.13 710.452h-4.96v195.931h4.96V710.452z" fill="#3F3D56"/>
<path d="M1082.9 676.221c.32 68.512-47.88 124.275-47.88 124.275s-48.703-55.317-49.018-123.829c-.316-68.512 47.878-124.275 47.878-124.275s48.71 55.316 49.02 123.829zM528.517 875.452h-4.96v195.928h4.96V875.452z" fill="#3F3D56"/>
<path d="M574.288 841.221c.316 68.512-47.879 124.275-47.879 124.275s-48.707-55.317-49.023-123.829c-.316-68.512 47.88-124.275 47.88-124.275s48.707 55.316 49.022 123.829zM467.301 817.368h-6.43v254.012h6.43V817.368z" fill="#3F3D56"/>
<path d="M526.641 790.538c.409 88.823-62.074 161.118-62.074 161.118s-63.146-71.716-63.555-160.538C400.602 702.295 463.085 630 463.085 630s63.146 71.716 63.556 160.538zM410.132 875.452h-4.959v195.928h4.959V875.452z" fill="#3F3D56"/>
<path d="M455.904 841.221c.315 68.512-47.88 124.275-47.88 124.275s-48.707-55.317-49.022-123.829c-.316-68.512 47.879-124.275 47.879-124.275s48.707 55.316 49.023 123.829z" fill="#3F3D56"/>
<path d="M933.2 820.104l-82.874-76.212a148.628 148.628 0 00-.325 10.384c.316 68.512 49.023 123.829 49.023 123.829a229.501 229.501 0 0034.176-58.001z" fill="#6C63FF"/><path d="M428.709 882.076c2.84 10.498 12.566 17 12.566 17s5.122-10.519 2.282-21.017c-2.839-10.498-12.565-17-12.565-17s-5.122 10.519-2.283 21.017z" fill="#3F3D56"/><path d="M432.882 879.82c7.791 7.586 8.743 19.247 8.743 19.247s-11.681-.638-19.472-8.224c-7.792-7.586-8.744-19.247-8.744-19.247s11.681.638 19.473 8.224z" fill="#3F3D56"/><path d="M828.962 882.076c2.84 10.498 12.566 17 12.566 17s5.122-10.519 2.282-21.017c-2.839-10.498-12.565-17-12.565-17s-5.122 10.519-2.283 21.017z" fill="#6C63FF"/><path d="M833.135 879.82c7.791 7.586 8.743 19.247 8.743 19.247s-11.681-.638-19.473-8.224c-7.791-7.586-8.743-19.247-8.743-19.247s11.681.638 19.473 8.224z" fill="#6C63FF"/><path d="M113.017 882.076c2.84 10.498 12.565 17 12.565 17s5.123-10.519 2.283-21.017c-2.839-10.498-12.565-17-12.565-17s-5.122 10.519-2.283 21.017z" fill="#3F3D56"/><path d="M117.19 879.82c7.791 7.586 8.743 19.247 8.743 19.247s-11.681-.638-19.473-8.224c-7.791-7.586-8.743-19.247-8.743-19.247s11.681.638 19.473 8.224z" fill="#3F3D56"/><path d="M433.703 673.926l136.016 205.317a160.182 160.182 0 004.569-38.022c-.154-33.409-11.815-63.677-23.723-85.926l-6.293 1.564 5.918-2.258a218.528 218.528 0 00-24.924-37.209s-3.471 4.017-8.54 11.212C498.856 670.632 463.085 630 463.085 630a278.348 278.348 0 00-29.382 43.926z" fill="#6C63FF"/><path opacity=".1" d="M1333.47 891.245c1.07 0 2.11-.427 2.87-1.188a4.05 4.05 0 001.18-2.868c0-1.076-.42-2.107-1.18-2.868a4.068 4.068 0 00-2.87-1.188h-33.35a9.055 9.055 0 01-4.05 12.168 4.059 4.059 0 004.05 4.056h33.35c1.07 0 2.11-.427 2.87-1.188a4.05 4.05 0 001.18-2.868c0-1.076-.42-2.107-1.18-2.868a4.068 4.068 0 00-2.87-1.188z" fill="#F2F2F2"/><path d="M1254.22 882.876c.57 22.119-12.81 16.481-29.03 16.481s-29.6 2.819-29.71-16.481c-.05-9.504 13.25-11.572 29.47-11.572s29.02 2.071 29.27 11.572z" fill="#3F3D56"/><path d="M1292.16 891.618c-.26-.14-.55-.232-.84-.271a42.462 42.462 0 01-4.37-.934 9.213 9.213 0 01-3.87-2.151c-.41-.48-.86-.917-1.36-1.305a1.624 1.624 0 00-1.77-.127c-.06.044-.11.094-.16.149-.2-.133-.4-.266-.61-.399a274.16 274.16 0 00-3.23-2.096l-.04-.028c.03-.17.03-.344 0-.515a2.484 2.484 0 00-1.08-1.339c1.4-.013 2.8-.141 4.19-.288a5.003 5.003 0 003.56-1.392.955.955 0 00.25-.575c0-.438-.45-.724-.85-.89a8.562 8.562 0 00-1.68-.494 9.16 9.16 0 01-1.18-.247 5.93 5.93 0 01-1-.472l-2.07-1.138a3.259 3.259 0 01-.8-.555c-.35-.371-.5-.896-.86-1.261-.33-.336-1.66-.779-1.85-.09-.08.272.21.574.24.878a13 13 0 00-1.43-.786c.03-.061.07-.116.09-.179a18.44 18.44 0 01-5.3-6.861c.21.005.41.018.62.016.34.032.69-.053.99-.242.12-.111.21-.248.28-.4.06-.153.08-.317.07-.481a3.11 3.11 0 00-.24-.949 7.281 7.281 0 00-1.37-2.461 8.103 8.103 0 00-2.01-1.428l-.12-.067c-.05-.152-.09-.306-.16-.455-.44-.925-.94-1.82-1.5-2.682a17.554 17.554 0 01-1.73-4.59 5.898 5.898 0 00-1.08-2.7c-1.08-1.186-2.92-1.156-4.51-.977-.91.103-1.81.239-2.72.38-.01-.023-.01-.048-.02-.07a1.824 1.824 0 01-.2-.685c.02-.196.06-.388.13-.575.04-.233.03-.473-.04-.7a1.412 1.412 0 00-.36-.599c-.04-.036-.07-.077-.11-.116.1-.234.19-.471.27-.709a.881.881 0 00.17-.301c.03-.11.04-.227.03-.342a7.09 7.09 0 00.26-1.774 18.505 18.505 0 01-.14-4.005 2.231 2.231 0 00-.36-.926c-.03-.044-.09-.065-.12-.104.27-.364.59-.694.94-.982.7-.536 1.44-1.007 2.22-1.406.19-.103.45-.177.63-.295.27.046.55.074.83.084a6.308 6.308 0 005.25-2.744c.59-.851.95-1.833 1.07-2.859a6.258 6.258 0 00-.39-3.028c.29-.07.55-.196.79-.371s.44-.395.59-.648c.31-.538.49-1.138.54-1.756.05-.238.05-.482.01-.721a1.985 1.985 0 00-.27-.667 3.12 3.12 0 00-.81-.565 3.199 3.199 0 01-1.01-1.018c-.17-.294-.3-.616-.46-.92a3.432 3.432 0 00-1.2-1.388 3.425 3.425 0 00-1.75-.565c-.59.075-1.18.192-1.75.349-1.98.346-4.12-.698-5.95.116a5.42 5.42 0 00-1.24.83c-.52.425-1.02.873-1.49 1.344-.41.352-.73.806-.91 1.318-.25.934.35 1.977-.03 2.868-.13.254-.28.496-.46.72-.41.609.04 2.987-.01 3.723-.05.36.04.727.26 1.02.05.056.11.103.18.142a82.604 82.604 0 00-8.99 3.821 19.291 19.291 0 00-8.34 7.794c-.5.966-.87 1.988-1.32 2.977-.6 1.32-1.32 2.577-2.05 3.833-.88 1.531-1.76 3.065-2.78 4.508-.58.766-1.12 1.563-1.61 2.388-.01.12-.01.241-.01.362.02.114.01.231-.03.339a.532.532 0 01-.39.22l-.02.062c-.23.742-.42 1.496-.57 2.258-.3 1.21-.78 2.379-.97 3.613-.1.154-.16.337-.17.525 0 .188.05.373.15.533.1.159.24.286.41.364.18.078.37.104.55.075 1.06.47 2.08 1.02 3.09 1.574-.02.075-.04.147-.05.223-.03.784.16 1.563.55 2.245.39.682.96 1.239 1.66 1.608 1.4.714 2.93 1.131 4.5 1.223.6.073 1.22.107 1.82.169.89.494 1.84.877 2.82 1.141.22.063.44.097.66.103a2.006 2.006 0 001.51-.849c5.24.29 10.49.183 15.72-.32a5.753 5.753 0 014.24.657c1.13.921 1.36 2.554 2.2 3.748.62.735 1.3 1.406 2.05 1.999a30.51 30.51 0 013.94 5.174 11.592 11.592 0 004.74 4.378c.35-.563.87-1.009 1.47-1.28.16-.094.31-.203.46-.303.21.337.45.651.72.938.2.219.41.449.59.687l-.01-.002c-.28.043-.37.386-.4.662l-.36 3.171c-.05.209-.03.425.04.626.13.219.33.386.57.473.98.471 2.04.751 3.13.825.54.038 1.09.022 1.64.07.89.116 1.78.293 2.65.529 2.36.54 4.8.731 7.22.566.5-.012 1-.106 1.47-.277a4.318 4.318 0 001.44-1.121c.51-.479.88-1.079 1.09-1.743a1.685 1.685 0 00-.62-1.839z" fill="#3F3D56"/><path d="M1253.17 820.81c.23-.041.46-.105.7-.164a5.096 5.096 0 00-2.21.213c.5.046 1.01.029 1.51-.049zM1257.87 822.414c.16.305.29.626.47.92.25.414.59.762 1 1.018.3.144.57.335.81.565.13.202.22.429.27.668.05.238.04.483-.01.72a4.048 4.048 0 01-.54 1.756c-.15.253-.35.473-.59.648-.23.175-.5.301-.79.371.43 1.026.58 2.15.43 3.254a6.13 6.13 0 01-1.28 3.021 6.196 6.196 0 01-5.91 2.272c-.18.118-.44.192-.63.295-.78.399-1.52.87-2.22 1.406-.35.288-.67.618-.94.982.04.04.09.06.12.104.19.279.31.595.36.926-.09 1.336-.05 2.678.14 4.005a6.66 6.66 0 01-.26 1.774c.01.115 0 .232-.03.342a.881.881 0 01-.17.301c-.08.238-.17.475-.27.709.04.039.07.08.11.116.17.166.3.372.37.599.06.227.08.468.03.7-.07.187-.11.38-.13.575.02.24.09.472.21.685.01.022.01.047.01.07.91-.14 1.81-.277 2.72-.379.44-.053.89-.082 1.34-.089a.93.93 0 01-.05-.287c.02-.195.06-.388.12-.575a1.412 1.412 0 00-.39-1.299c-.04-.036-.07-.076-.11-.116.1-.234.19-.471.27-.709a.881.881 0 00.17-.301c.03-.11.04-.227.03-.342a7.09 7.09 0 00.26-1.774 18.505 18.505 0 01-.14-4.005 2.231 2.231 0 00-.36-.926c-.03-.044-.09-.064-.12-.104.27-.364.59-.694.94-.982.7-.536 1.44-1.007 2.22-1.406.19-.103.45-.177.63-.295.27.046.55.074.83.084a6.308 6.308 0 005.25-2.744c.59-.851.95-1.833 1.07-2.859a6.38 6.38 0 00-.39-3.028c.29-.07.55-.196.79-.371s.44-.395.59-.648c.31-.538.49-1.138.54-1.756.05-.237.05-.482.01-.721a1.985 1.985 0 00-.27-.667 3.12 3.12 0 00-.81-.565 3.189 3.189 0 01-1.01-1.018c-.17-.294-.3-.615-.46-.92a3.432 3.432 0 00-1.2-1.388 3.425 3.425 0 00-1.75-.565c-.59.075-1.18.192-1.75.349-.33.052-.65.073-.98.065.62.371 1.12.903 1.45 1.539zM1292.16 891.618c-.26-.14-.55-.232-.84-.271a42.462 42.462 0 01-4.37-.934 9.276 9.276 0 01-3.87-2.152 9.27 9.27 0 00-1.36-1.304c-.25-.19-.55-.304-.87-.326-.31-.023-.63.046-.9.199-.06.044-.11.094-.16.149-.2-.133-.4-.266-.61-.399a274.16 274.16 0 00-3.23-2.096l-.04-.028c.03-.17.03-.344 0-.515a2.484 2.484 0 00-1.08-1.339c1.4-.013 2.8-.141 4.19-.288a5.003 5.003 0 003.56-1.392.955.955 0 00.25-.575c0-.438-.45-.724-.85-.89a8.562 8.562 0 00-1.68-.494 9.16 9.16 0 01-1.18-.247 6.09 6.09 0 01-1-.472l-2.07-1.138a3.259 3.259 0 01-.8-.555c-.35-.371-.5-.896-.86-1.261-.33-.336-1.66-.779-1.85-.09-.08.272.21.573.24.878a13 13 0 00-1.43-.786c.03-.061.07-.116.09-.179a18.44 18.44 0 01-5.3-6.861c.21.005.41.018.62.016.34.032.69-.053.99-.242.12-.111.21-.248.28-.4.06-.153.08-.317.07-.481a3.11 3.11 0 00-.24-.949 7.281 7.281 0 00-1.37-2.461 8.103 8.103 0 00-2.01-1.428l-.12-.067c-.05-.152-.09-.306-.16-.455-.44-.925-.94-1.821-1.5-2.682a17.554 17.554 0 01-1.73-4.59 5.898 5.898 0 00-1.08-2.7c-1.08-1.186-2.92-1.156-4.51-.977-.36.041-.71.1-1.07.149.52.151.98.437 1.35.828.58.795.95 1.723 1.09 2.7.35 1.603.93 3.148 1.72 4.59.56.861 1.06 1.757 1.51 2.682.06.149.1.303.15.455l.12.067c.74.372 1.42.854 2.01 1.428a7.115 7.115 0 011.37 2.461c.13.301.22.622.24.949.01.164-.01.328-.07.481-.06.152-.16.289-.28.4-.29.189-.64.274-.99.242-.21.002-.41-.011-.62-.016a18.44 18.44 0 005.3 6.861c-.02.063-.06.118-.08.179.49.234.97.496 1.43.786-.04-.305-.33-.606-.25-.878.19-.689 1.52-.246 1.85.09.36.365.51.89.87 1.261.23.226.5.413.79.555l2.07 1.138c.32.187.65.345 1 .472.39.108.79.191 1.19.247.57.108 1.13.273 1.67.494.4.166.86.452.85.89a.943.943 0 01-.24.575 5.036 5.036 0 01-3.56 1.392c-1.39.147-2.8.275-4.2.288.51.304.89.779 1.08 1.339.03.171.03.345 0 .515l.04.028c1.09.691 2.16 1.389 3.24 2.096l.6.399c.05-.055.1-.105.16-.149.27-.153.59-.222.9-.199.32.022.62.136.87.326.5.388.96.825 1.37 1.304a9.18 9.18 0 003.86 2.152c1.44.388 2.9.7 4.37.934.29.039.58.131.84.271a1.685 1.685 0 01.62 1.839c-.2.664-.58 1.264-1.08 1.743-.4.472-.89.854-1.45 1.121-.34.13-.71.21-1.07.235 1.27.113 2.55.127 3.83.042.5-.012 1-.106 1.47-.277a4.318 4.318 0 001.44-1.121c.51-.479.88-1.079 1.09-1.743a1.685 1.685 0 00-.62-1.839zM1268.71 888.088c.07.064.14.13.21.192-.05-.076-.11-.149-.15-.227l-.06.035zM1331.67 876.373c0 14.934-6.66 10.816-14.87 10.816-8.22 0-14.87 4.118-14.87-10.816 0-14.934 14.87-43.264 14.87-43.264s14.87 28.33 14.87 43.264z" fill="#FF6584"/><path opacity=".1" d="M1323.56 882.087c0 6.788-3.03 4.916-6.76 4.916-3.74 0-6.76 1.872-6.76-4.916s6.76-19.666 6.76-19.666 6.76 12.878 6.76 19.666z" fill="#000"/><path d="M1335.44 836.469s3.08-3.213 3.02-6.364zM1303.78 809.699s-1.29-4.267-4.07-5.755zM1272.77 751.908s-1.29-4.267-4.07-5.755zM1309.41 829.433s-1.29-4.267-4.06-5.756zM1305.19 760.365s-1.29-4.267-4.07-5.755zM1296.73 785.737s-1.29-4.267-4.07-5.755zM1332.62 880.165s3.09-3.213 3.02-6.364zM1338.25 856.203s3.09-3.213 3.03-6.364zM1299.66 852.173l-33.82 11.277.44 1.338 33.83-11.277-.45-1.338z" fill="#FF6584"/><path d="M1297.21 853.518c1.27 4.963-.87 3.777-2.81 4.179-1.94.403-1.56 2.193-4.23-2.722-1.85-3.399.86-3.777 2.8-4.179 1.95-.402 3.37-.666 4.24 2.722z" fill="#FF6584"/><path opacity=".1" d="M586.868 463l-22.173-22.349L549 427l-18.406-16.636-22.065-15.162-24.071-21.182-182.54-155.472L107.343 55 43 81.825l12.189-5.082 95.257 177.429L586.868 900H1006L586.868 463z" fill="#F2F2F2"/><path d="M67.052 93.115c21.016 0 38.052-17.039 38.052-38.057C105.104 34.039 88.068 17 67.052 17 46.037 17 29 34.039 29 55.058c0 21.018 17.037 38.057 38.052 38.057z" fill="#F2F2F2"/></g><defs><clipPath id="clip0"><path fill="#fff" d="M0 0h1440v900H0z"/></clipPath></defs></svg>